<svg width="30" height="31" viewBox="0 0 30 31" fill="none" xmlns="http://www.w3.org/2000/svg">
<g clip-path="url(#clip0_120_46)" filter="url(#filter0_d_120_46)">
<path d="M19 22V18.13C19.0375 17.6532 18.9731 17.1738 18.811 16.7238C18.6489 16.2738 18.3929 15.8634 18.06 15.52C21.2 15.17 24.5 13.98 24.5 8.52C24.4997 7.12383 23.9627 5.7812 23 4.77C23.4559 3.54851 23.4236 2.19835 22.91 0.999999C22.91 0.999999 21.73 0.649999 19 2.48C16.708 1.85882 14.292 1.85882 12 2.48C9.27 0.649999 8.09 0.999999 8.09 0.999999C7.57638 2.19835 7.54414 3.54851 8 4.77C7.03013 5.7887 6.49252 7.14346 6.5 8.55C6.5 13.97 9.8 15.16 12.94 15.55C12.611 15.89 12.3573 16.2954 12.1953 16.7399C12.0334 17.1844 11.9668 17.6581 12 18.13V22M12 19C7 20.5 7 16.5 5 16L12 19Z" stroke="#BB99DD" stroke-width="2" stroke-linecap="round" stroke-linejoin="round"/>
</g>
<defs>
<filter id="filter0_d_120_46" x="-1" y="0" width="32" height="32" filterUnits="userSpaceOnUse" color-interpolation-filters="sRGB">
<feFlood flood-opacity="0" result="BackgroundImageFix"/>
<feColorMatrix in="SourceAlpha" type="matrix" values="0 0 0 0 0 0 0 0 0 0 0 0 0 0 0 0 0 0 127 0" result="hardAlpha"/>
<feOffset dy="4"/>
<feGaussianBlur stdDeviation="2"/>
<feComposite in2="hardAlpha" operator="out"/>
<feColorMatrix type="matrix" values="0 0 0 0 0 0 0 0 0 0 0 0 0 0 0 0 0 0 0.25 0"/>
<feBlend mode="normal" in2="BackgroundImageFix" result="effect1_dropShadow_120_46"/>
<feBlend mode="normal" in="SourceGraphic" in2="effect1_dropShadow_120_46" result="shape"/>
</filter>
<clipPath id="clip0_120_46">
<rect width="24" height="24" fill="white" transform="translate(3)"/>
</clipPath>
</defs>
</svg>
