<svg width="30" height="30" viewBox="0 0 30 30" fill="none" xmlns="http://www.w3.org/2000/svg">
<g filter="url(#filter0_d_120_42)">
<path d="M19 8C20.5913 8 22.1174 8.63214 23.2426 9.75736C24.3679 10.8826 25 12.4087 25 14V21H21V14C21 13.4696 20.7893 12.9609 20.4142 12.5858C20.0391 12.2107 19.5304 12 19 12C18.4696 12 17.9609 12.2107 17.5858 12.5858C17.2107 12.9609 17 13.4696 17 14V21H13V14C13 12.4087 13.6321 10.8826 14.7574 9.75736C15.8826 8.63214 17.4087 8 19 8V8Z" stroke="#BB99DD" stroke-width="2" stroke-linecap="round" stroke-linejoin="round"/>
<path d="M9 9H5V21H9V9Z" stroke="#BB99DD" stroke-width="2" stroke-linecap="round" stroke-linejoin="round"/>
<path d="M7 6C8.10457 6 9 5.10457 9 4C9 2.89543 8.10457 2 7 2C5.89543 2 5 2.89543 5 4C5 5.10457 5.89543 6 7 6Z" stroke="#BB99DD" stroke-width="2" stroke-linecap="round" stroke-linejoin="round"/>
</g>
<defs>
<filter id="filter0_d_120_42" x="-1" y="0" width="32" height="32" filterUnits="userSpaceOnUse" color-interpolation-filters="sRGB">
<feFlood flood-opacity="0" result="BackgroundImageFix"/>
<feColorMatrix in="SourceAlpha" type="matrix" values="0 0 0 0 0 0 0 0 0 0 0 0 0 0 0 0 0 0 127 0" result="hardAlpha"/>
<feOffset dy="4"/>
<feGaussianBlur stdDeviation="2"/>
<feComposite in2="hardAlpha" operator="out"/>
<feColorMatrix type="matrix" values="0 0 0 0 0 0 0 0 0 0 0 0 0 0 0 0 0 0 0.25 0"/>
<feBlend mode="normal" in2="BackgroundImageFix" result="effect1_dropShadow_120_42"/>
<feBlend mode="normal" in="SourceGraphic" in2="effect1_dropShadow_120_42" result="shape"/>
</filter>
</defs>
</svg>
